<?xml version="1.0" encoding="utf-8"?>
<!-- Generator: Adobe Illustrator 22.0.1, SVG Export Plug-In . SVG Version: 6.00 Build 0)  -->
<svg version="1.1" id="Layer_1" xmlns="http://www.w3.org/2000/svg" xmlns:xlink="http://www.w3.org/1999/xlink" x="0px" y="0px"
	 viewBox="0 0 694.9 442.5" style="enable-background:new 0 0 694.9 442.5;" xml:space="preserve">
<style type="text/css">
	.st0{fill:#FFC83E;}
	.st1{fill:#0FD8BB;}
	.st2{fill:#2C2C30;}
</style>
<g>
	<path class="st0" d="M269.2,180.6l78.3-78.3l-85.5-85.5c-22.4-22.4-59-22.4-81.3,0L16.8,180.6c-22.4,22.4-22.4,59,0,81.3
		l163.8,163.8c22.4,22.4,59,22.4,81.3,0l85.5-85.5l-78.3-78.3C246.8,239.5,246.8,202.9,269.2,180.6z"/>
	<path class="st1" d="M678.1,180.6L514.3,16.8c-22.4-22.4-59-22.4-81.3,0l-85.5,85.5l78.3,78.3c22.4,22.4,22.4,59,0,81.3l-78.3,78.3
		l85.5,85.5c22.4,22.4,59,22.4,81.3,0l163.8-163.8C700.5,239.5,700.5,202.9,678.1,180.6z"/>
	<path class="st2" d="M425.7,180.6l-78.3-78.3l-78.3,78.3c-22.4,22.4-22.4,59,0,81.3l78.3,78.3l78.3-78.3
		C448.1,239.5,448.1,202.9,425.7,180.6z"/>
</g>
</svg>
